<svg width="24.000000" height="24.000000" viewBox="0 0 24 24" fill="none" xmlns="http://www.w3.org/2000/svg" xmlns:xlink="http://www.w3.org/1999/xlink">
	<desc>
			Created with Pixso.
	</desc>
	<defs>
		<clipPath id="clip127_1217">
			<rect id="Arrow - Left" width="24.000000" height="24.000000" transform="translate(0.000000 -0.789551)" fill="white" fill-opacity="0"/>
		</clipPath>
	</defs>
	<g clip-path="url(#clip127_1217)">
		<path id="Combined-Shape" d="M20 11.48C20 11.86 19.71 12.17 19.35 12.22L19.25 12.23L6.06 12.23L10.82 16.97C11.12 17.26 11.12 17.74 10.83 18.03C10.56 18.3 10.14 18.33 9.85 18.11L9.77 18.04L3.72 12.01C3.68 11.97 3.64 11.93 3.61 11.89C3.61 11.87 3.6 11.86 3.59 11.85C3.58 11.83 3.58 11.82 3.57 11.81C3.56 11.79 3.55 11.77 3.55 11.75C3.54 11.74 3.54 11.73 3.53 11.71C3.53 11.69 3.52 11.67 3.52 11.65C3.51 11.64 3.51 11.63 3.51 11.61C3.5 11.6 3.5 11.58 3.5 11.55C3.5 11.54 3.5 11.52 3.5 11.51C3.5 11.5 3.5 11.49 3.5 11.48L3.5 11.45C3.5 11.44 3.5 11.42 3.5 11.41L3.5 11.48C3.5 11.43 3.5 11.39 3.51 11.34C3.51 11.33 3.51 11.32 3.51 11.31C3.52 11.29 3.53 11.26 3.53 11.24C3.54 11.23 3.54 11.22 3.55 11.21C3.55 11.19 3.56 11.17 3.57 11.14C3.58 11.13 3.58 11.12 3.59 11.11C3.6 11.1 3.61 11.08 3.62 11.07C3.63 11.06 3.63 11.04 3.64 11.03L3.65 11.02C3.67 11 3.69 10.97 3.71 10.95L3.72 10.95L9.77 4.92C10.06 4.63 10.53 4.63 10.83 4.93C11.09 5.19 11.12 5.61 10.9 5.9L10.82 5.99L6.06 10.73L19.25 10.73C19.66 10.73 20 11.07 20 11.48Z" fill="#171725" fill-opacity="1.000000" fill-rule="nonzero"/>
	</g>
</svg>
