<svg width="94.000000" height="94.000000" viewBox="0 0 94 94" fill="none" xmlns="http://www.w3.org/2000/svg" xmlns:xlink="http://www.w3.org/1999/xlink">
	<desc>
			Created with Pixso.
	</desc>
	<defs>
		<clipPath id="clip190_1634">
			<rect id="no-task (4) 1" width="94.000000" height="94.000000" fill="white" fill-opacity="0"/>
		</clipPath>
	</defs>
	<rect id="no-task (4) 1" width="94.000000" height="94.000000" fill="#FFFFFF" fill-opacity="0"/>
	<g clip-path="url(#clip190_1634)">
		<path id="Vector" d="M67.92 9.17L60.09 9.17C59.45 8.08 58.27 7.34 56.91 7.34L45.71 7.34C44.86 3.15 41.15 0 36.71 0C32.28 0 28.57 3.15 27.72 7.34L16.52 7.34C15.16 7.34 13.98 8.08 13.34 9.17L5.5 9.17C2.47 9.17 0 11.65 0 14.68L0 88.49C0 91.52 2.47 93.99 5.5 93.99L67.92 93.99C70.96 93.99 73.43 91.52 73.43 88.49L73.43 14.68C73.43 11.65 70.96 9.17 67.92 9.17ZM29.37 11.01C30.38 11.01 31.21 10.19 31.21 9.17C31.21 6.14 33.68 3.67 36.71 3.67C39.75 3.67 42.22 6.14 42.22 9.17C42.22 10.19 43.04 11.01 44.06 11.01L56.91 11.01L56.91 18.35L16.52 18.35L16.52 11.01L29.37 11.01ZM69.76 88.49C69.76 89.5 68.94 90.32 67.92 90.32L5.5 90.32C4.49 90.32 3.67 89.5 3.67 88.49L3.67 14.68C3.67 13.67 4.49 12.85 5.5 12.85L12.85 12.85L12.85 16.52L9.17 16.52C8.16 16.52 7.34 17.34 7.34 18.35L7.34 84.82C7.34 85.83 8.16 86.65 9.17 86.65L28.45 86.65C29.47 86.65 30.29 85.83 30.29 84.82C30.29 83.8 29.47 82.98 28.45 82.98L11.01 82.98L11.01 20.19L13.34 20.19C13.98 21.29 15.16 22.03 16.52 22.03L56.91 22.03C58.27 22.03 59.45 21.29 60.09 20.19L62.42 20.19L62.42 82.98L44.97 82.98C43.96 82.98 43.14 83.8 43.14 84.82C43.14 85.83 43.96 86.65 44.97 86.65L64.25 86.65C65.27 86.65 66.09 85.83 66.09 84.82L66.09 18.35C66.09 17.34 65.27 16.52 64.25 16.52L60.58 16.52L60.58 12.85L67.92 12.85C68.94 12.85 69.76 13.67 69.76 14.68L69.76 88.49Z" fill="#0A113C" fill-opacity="1.000000" fill-rule="nonzero"/>
		<path id="Vector" d="M36.71 11.01C37.73 11.01 38.55 10.19 38.55 9.18C38.55 8.16 37.73 7.34 36.71 7.34L36.71 7.34C35.7 7.34 34.88 8.16 34.88 9.18C34.88 10.19 35.7 11.01 36.71 11.01Z" fill="#0A113C" fill-opacity="1.000000" fill-rule="nonzero"/>
		<path id="Vector" d="M86.27 19.98C85.96 19.36 85.33 18.97 84.63 18.97L79.12 18.97C78.11 18.97 77.29 19.79 77.29 20.8C77.29 21.82 78.11 22.64 79.12 22.64L80.96 22.64L77.66 27.04C77.24 27.6 77.17 28.35 77.48 28.97C77.79 29.59 78.43 29.98 79.12 29.98L84.63 29.98C85.65 29.98 86.47 29.16 86.47 28.15C86.47 27.13 85.65 26.31 84.63 26.31L82.8 26.31L86.1 21.9C86.52 21.35 86.58 20.6 86.27 19.98Z" fill="#FFCCD2" fill-opacity="1.000000" fill-rule="nonzero"/>
		<path id="Vector" d="M92.16 9.79L88.49 9.79L93.63 2.93C94.04 2.38 94.11 1.63 93.8 1.01C93.49 0.39 92.85 0 92.16 0L84.82 0C83.8 0 82.98 0.82 82.98 1.83C82.98 2.84 83.8 3.67 84.82 3.67L88.49 3.67L83.35 10.52C82.93 11.08 82.86 11.82 83.17 12.44C83.48 13.07 84.12 13.46 84.82 13.46L92.16 13.46C93.17 13.46 94 12.64 94 11.62C94 10.61 93.17 9.79 92.16 9.79Z" fill="#FFCCD2" fill-opacity="1.000000" fill-rule="nonzero"/>
		<path id="Vector" d="M36.71 82.98L36.71 82.98C35.7 82.98 34.88 83.8 34.88 84.82C34.88 85.83 35.7 86.65 36.71 86.65C37.73 86.65 38.55 85.83 38.55 84.82C38.55 83.8 37.73 82.98 36.71 82.98Z" fill="#0A113C" fill-opacity="1.000000" fill-rule="nonzero"/>
		<path id="Vector" d="M33.93 41.59C33.9 40.19 34.43 39.17 35.24 38.57C36.51 37.63 38.42 37.67 39.45 38.83C39.9 39.33 40.15 40.04 40.16 40.94C40.18 43.09 39.17 44.34 38.18 45.64C36.85 47.39 35.53 49.2 35.36 52.2C35.32 53.01 35.94 53.7 36.75 53.75C37.56 53.79 38.25 53.17 38.3 52.36C38.42 50.08 39.51 48.75 40.52 47.42C41.88 45.64 43.12 43.86 43.1 40.91C43.08 39.18 42.51 37.85 41.65 36.88C39.64 34.63 35.96 34.38 33.49 36.2C32.01 37.3 30.94 39.11 31 41.66C31.02 42.47 31.69 43.11 32.5 43.09C33.31 43.07 33.95 42.4 33.93 41.59Z" fill="#FFCCD2" fill-opacity="1.000000" fill-rule="evenodd"/>
		<path id="Vector" d="M38.5 57.4C38.5 58.39 37.69 59.2 36.69 59.2C35.7 59.2 34.89 58.39 34.89 57.4C34.89 56.4 35.7 55.59 36.69 55.59C37.69 55.59 38.5 56.4 38.5 57.4Z" fill="#FFCCD2" fill-opacity="1.000000" fill-rule="evenodd"/>
	</g>
</svg>
